<svg xmlns="http://www.w3.org/2000/svg" width="60.13" height="67.809" viewBox="0 0 60.13 67.809">
	<path class="logo-svg" d="M39.03 14.29c-2.558 0-5.256 1.487-7.227 2.575-.47.259-1.411.889-1.738.888-.324 0-1.262-.627-1.732-.887-1.965-1.087-4.657-2.577-7.233-2.577-3.256 0-6.245 1.338-8.416 3.77-2.058 2.304-3.191 5.334-3.191 8.533 0 4.474 1.6 10.822 4.28 16.98 1.194 2.744 2.467 5.117 3.681 6.864 1.513 2.177 2.852 3.235 4.095 3.235.597 0 1.686-.243 2.272-1.865.488-1.352.926-2.894 1.391-4.535 1.057-3.729 2.653-9.363 4.776-9.363h.155c.906 0 1.754.853 2.591 2.605.891 1.865 1.574 4.371 2.236 6.797.443 1.623.863 3.158 1.338 4.49.575 1.615 1.654 1.857 2.248 1.857 1.238 0 2.577-1.074 4.092-3.283 1.212-1.766 2.486-4.162 3.688-6.93 2.693-6.206 4.303-12.506 4.303-16.854 0-3.198-1.135-6.229-3.191-8.533-2.173-2.429-5.162-3.767-8.418-3.767zm5.012 28.159c-1.123 2.588-2.35 4.899-3.455 6.512-.984 1.434-1.254 1.586-1.766 2.044-.066.06-.131.033-.158-.044-.444-1.24-.85-2.731-1.281-4.312-.69-2.53-1.404-5.146-2.391-7.213-1.295-2.711-2.881-4.029-4.849-4.029h-.154c-1.902 0-3.453 1.308-4.744 3.998-.983 2.048-1.724 4.665-2.443 7.201-.449 1.586-.873 3.083-1.331 4.349-.02.056-.052.178-.179.14-.31-.091-.782-.646-1.784-2.086-1.106-1.592-2.328-3.877-3.441-6.435-2.512-5.771-4.072-11.897-4.072-15.983 0-4.818 3.406-9.802 9.106-9.802 1.473 0 3.425.682 5.223 1.824.259.165.636.455 1.001.735l.434.331c.446.335 1.049.771 1.759 1.189.376.222.718.419 1.104.583 1.546.656 3.186.989 4.874.989 1.737 0 5.316-.736 5.316-1.137 0-.272-4.224.239-7.283-.934-.485-.186-1.475-.51-1.475-.637 0-.091.089-.173.179-.227.218-.13.465-.278.783-.454 1.73-.955 4.102-2.263 6.016-2.263 5.7 0 9.106 4.984 9.106 9.802-.001 3.963-1.57 10.039-4.095 15.859zM60.019 15.931c-.083-1.963-1.501-4.044-3.298-4.84l-23.793-10.544c-.797-.353-1.822-.547-2.889-.547-1.067 0-2.093.194-2.89.547l-23.793 10.543c-1.801.798-3.211 2.884-3.281 4.852-.036.992-.811 24.387 3.569 32.05 4.363 7.635 22.691 18.607 23.468 19.07.808.482 1.851.746 2.938.746 1.078 0 2.113-.26 2.916-.734.784-.464 19.279-11.444 23.644-19.082 4.383-7.668 3.451-31.068 3.409-32.061zm-6.215 30.459c-3.941 6.897-22.298 17.792-22.482 17.902-.303.179-.779.286-1.272.286-.498 0-.979-.109-1.283-.291-.184-.109-18.374-10.997-22.317-17.897-3.258-5.701-3.375-23.829-3.146-30.333.025-.723.7-1.72 1.361-2.013l23.794-10.543c.381-.169.972-.27 1.58-.27s1.199.101 1.58.27l23.794 10.543c.664.295 1.348 1.296 1.377 2.022.274 6.503.271 24.623-2.986 30.324z"/>
</svg>