<svg xmlns="http://www.w3.org/2000/svg" width="16" height="15.32" viewBox="0 0 16 15.32"><path fill="#71B6E9" d="M12.528 11.445c-2.098-.765-2.768-1.41-2.768-2.791 0-.828.639-.557.921-2.076.117-.629.683-.01.792-1.447 0-.574-.31-.715-.31-.715s.157-.85.218-1.502c.077-.812-.469-2.914-3.381-2.914s-3.458 2.102-3.382 2.914c.062.652.219 1.502.219 1.502s-.31.141-.31.715c.109 1.438.674.818.791 1.447.283 1.52.922 1.248.922 2.076 0 1.381-.67 2.025-2.768 2.791-2.105.768-3.472 1.549-3.472 2.082v1.793h16v-1.793s-1.367-1.314-3.472-2.082z"/></svg>