<svg xmlns="http://www.w3.org/2000/svg" width="300" height="176.561" viewBox="0 0 300 176.561">
	<g fill="#2D3640">
		<path d="M118.568 162.011c-.963 0-1.921-.062-2.863-.177-7.3-.897-13.762-4.74-17.729-10.544-4.59-6.707-5.638-15.701-3.031-26.013 2.84-11.23 9.904-19.757 21.613-33.882 1.891-2.282 3.906-4.715 6.047-7.329 8.41-10.275 9.044-17.388 8.1-21.543-.813-3.539-3.119-6.358-6.505-7.935-6.036-2.813-10.091-.046-11.728 3.185-1.547 3.032-1.215 7.153 2.397 9.151 1.808.993 4.282.317 5.532-.886.581-.555 1.158-1.447.613-2.536-.312-.624-.059-1.379.561-1.691.623-.312 1.38-.059 1.691.566.933 1.864.515 3.912-1.117 5.481-1.914 1.838-5.545 2.906-8.502 1.273-5.008-2.773-5.512-8.39-3.422-12.501 2.242-4.415 7.91-7.656 15.035-4.329 4.105 1.914 6.912 5.347 7.896 9.66 1.072 4.707.452 12.638-8.607 23.705-2.138 2.616-4.158 5.054-6.057 7.337-11.479 13.854-18.407 22.213-21.107 32.895-2.421 9.588-1.502 17.877 2.67 23.971 3.56 5.205 9.374 8.653 15.957 9.463 9.971 1.223 21.644-4.807 23.131-16.704.721-5.749-.471-10.783-3.445-14.558-2.85-3.615-7.168-5.914-12.162-6.468-3.676-.405-7.467.737-10.406 3.14-2.855 2.327-4.605 5.578-4.941 9.152-.361 3.917 1.068 11.577 9.092 12.557 3.906.461 6.209-1.156 7.467-2.604 1.859-2.141 2.268-4.771 1.854-6.308-.179-.672.223-1.364.895-1.544.685-.175 1.361.226 1.547.895.709 2.683-.252 6.144-2.392 8.608-2.345 2.707-5.784 3.922-9.679 3.453-8.634-1.051-11.904-8.662-11.293-15.287.396-4.257 2.478-8.117 5.863-10.878 3.457-2.824 7.934-4.171 12.27-3.69 5.668.633 10.597 3.264 13.867 7.412 3.403 4.317 4.77 10 3.968 16.436-1.541 12.297-12.642 19.067-23.08 19.067zM183.188 162.011c-10.436 0-21.533-6.768-23.072-19.068-.811-6.436.562-12.118 3.96-16.432 3.271-4.152 8.192-6.783 13.868-7.416 4.322-.474 8.812.863 12.275 3.69 3.383 2.761 5.459 6.621 5.857 10.878.614 6.625-2.66 14.236-11.293 15.287-3.901.465-7.334-.746-9.676-3.453-2.143-2.465-3.105-5.926-2.389-8.608.177-.669.865-1.083 1.54-.895.673.18 1.073.872.895 1.544-.41 1.537-.006 4.167 1.852 6.308 1.261 1.449 3.585 3.069 7.468 2.604 8.027-.979 9.457-8.64 9.097-12.557-.333-3.57-2.087-6.825-4.942-9.152-2.945-2.406-6.727-3.547-10.408-3.14-4.992.554-9.314 2.853-12.163 6.468-2.976 3.774-4.166 8.809-3.446 14.558 1.492 11.896 13.197 17.922 23.139 16.704 6.58-.81 12.395-4.258 15.954-9.463 4.169-6.094 5.095-14.383 2.673-23.971-2.706-10.682-9.639-19.047-21.121-32.905-1.891-2.281-3.908-4.711-6.047-7.328-9.059-11.065-9.68-18.997-8.606-23.703.987-4.313 3.79-7.746 7.894-9.66 7.131-3.327 12.795-.086 15.037 4.329 2.088 4.112 1.584 9.729-3.426 12.501-2.955 1.64-6.583.565-8.5-1.273-1.626-1.569-2.05-3.618-1.115-5.481.312-.625 1.074-.878 1.692-.566.62.313.875 1.068.56 1.691-.54 1.089.029 1.981.607 2.536 1.258 1.204 3.734 1.879 5.533.886 3.614-1.999 3.946-6.12 2.4-9.151-1.639-3.23-5.699-5.995-11.728-3.185-3.384 1.576-5.692 4.396-6.501 7.935-.947 4.156-.312 11.268 8.1 21.543 2.136 2.61 4.149 5.039 6.035 7.32 11.713 14.126 18.781 22.657 21.62 33.891 2.606 10.312 1.56 19.306-3.028 26.013-3.963 5.804-10.432 9.646-17.731 10.544-.941.114-1.903.177-2.864.177zM150.934 153.641c-.698 0-1.26-.562-1.26-1.259v-77.193c0-.699.562-1.261 1.26-1.261.697 0 1.261.562 1.261 1.261v77.192c-.001.697-.564 1.26-1.261 1.26zM150.934 176.561c-.404 0-.775-.192-1.018-.517l-8.389-11.518c-.322-.442-.322-1.043 0-1.485l8.389-11.521c.242-.325.613-.516 1.018-.516.404 0 .779.19 1.019.516l8.386 11.521c.32.442.32 1.043 0 1.485l-8.386 11.518c-.24.324-.615.517-1.019.517zm-6.83-12.778l6.83 9.376 6.827-9.376-6.827-9.377-6.83 9.377zM150.934 74.357c-.408 0-.783-.191-1.021-.516l-8.385-11.514c-.322-.445-.322-1.046 0-1.488l8.385-11.519c.479-.649 1.56-.649 2.037 0l8.385 11.519c.321.442.321 1.043 0 1.488l-8.385 11.514c-.24.326-.618.516-1.016.516zm-6.83-12.775l6.83 9.377 6.823-9.377-6.823-9.378-6.83 9.378zM108.969 60.026h-107.711c-.694 0-1.258-.563-1.258-1.259 0-.699.564-1.262 1.258-1.262h107.711c.697 0 1.258.562 1.258 1.262 0 .696-.561 1.259-1.258 1.259zM298.744 2.521h-297.486c-.694 0-1.258-.563-1.258-1.259 0-.7.564-1.262 1.258-1.262h297.486c.695 0 1.256.562 1.256 1.262 0 .696-.561 1.259-1.256 1.259zM298.74 60.026h-107.713c-.695 0-1.26-.563-1.26-1.26 0-.699.564-1.262 1.26-1.262h107.713c.695 0 1.26.562 1.26 1.262 0 .697-.564 1.26-1.26 1.26zM133.023 103.581c-.113 0-.227-.014-.332-.045-.352-.1-.646-.342-.803-.667-6.392-13.304-27.537-27.203-47.141-30.985-8.427-1.624-20.109-2.072-27.877 5.062-5.754 5.275-6.03 12.308-3.744 16.936 2.336 4.727 7.114 7.062 12.465 6.116 2.906-.52 5.354-2.366 6.703-5.068 1.299-2.583 1.354-5.563.15-7.964-1.527-3.05-4.488-3.849-6.73-3.297-1.66.407-3.417 1.703-3.377 4.113.01.699-.545 1.27-1.237 1.285h-.02c-.687 0-1.253-.553-1.265-1.241-.053-3.21 2.027-5.804 5.299-6.605 3.213-.794 7.434.325 9.582 4.617 1.555 3.108 1.5 6.93-.152 10.225-1.713 3.419-4.814 5.758-8.512 6.421-6.492 1.157-12.312-1.707-15.166-7.486-2.701-5.472-2.418-13.751 4.303-19.913 6.764-6.206 17.158-8.17 30.055-5.675 19.639 3.788 40.829 17.51 48.239 31.02 3.633-2.839 14.776-12.733 15.96-28.161.057-.699.714-1.265 1.351-1.161.697.052 1.214.658 1.161 1.352-1.509 19.631-17.536 30.462-18.217 30.911-.204.14-.454.21-.695.21zM50.432 88.083l-.131-.005c-.693-.073-1.197-.693-1.125-1.386.336-3.191-1.122-6.188-3.904-8.026-2.551-1.684-5.543-1.934-7.82-.664-.607.335-1.375.124-1.714-.485-.339-.609-.124-1.378.485-1.719 3.092-1.738 7.092-1.441 10.433.763 3.583 2.362 5.463 6.249 5.025 10.393-.064.651-.615 1.129-1.249 1.129zM168.699 103.581c-.242 0-.484-.07-.69-.211-.683-.449-16.703-11.275-18.223-30.898-.053-.689.468-1.299 1.161-1.351.66-.09 1.297.464 1.346 1.162 1.195 15.42 12.332 25.31 15.969 28.146 7.402-13.506 28.59-27.227 48.227-31.017 12.903-2.495 23.301-.534 30.07 5.672 6.713 6.159 6.999 14.441 4.296 19.913-2.85 5.779-8.661 8.636-15.164 7.486-3.696-.663-6.8-3.002-8.515-6.417-1.652-3.295-1.708-7.119-.152-10.229 2.148-4.289 6.357-5.417 9.585-4.617 3.271.801 5.351 3.395 5.294 6.605-.01.694-.594 1.151-1.28 1.241-.69-.015-1.247-.586-1.237-1.285.04-2.41-1.718-3.706-3.377-4.113-2.262-.555-5.203.251-6.73 3.293-1.203 2.404-1.146 5.385.153 7.972 1.351 2.702 3.794 4.545 6.704 5.064 5.343.946 10.125-1.39 12.465-6.119 2.277-4.625 2.01-11.658-3.745-16.933-7.775-7.134-19.45-6.686-27.886-5.06-19.605 3.784-40.748 17.682-47.136 30.983-.155.325-.443.567-.796.667-.113.032-.226.046-.339.046zM251.285 88.083c-.633 0-1.182-.481-1.247-1.129-.435-4.144 1.442-8.031 5.024-10.393 3.342-2.207 7.335-2.495 10.436-.763.607.341.826 1.109.484 1.719-.342.606-1.107.817-1.715.485-2.271-1.274-5.267-1.02-7.814.664-2.786 1.834-4.245 4.835-3.914 8.026.076.692-.424 1.313-1.12 1.386l-.134.005zM196.61 102.233c-4.122 0-7.903-1.911-9.754-4.979-.359-.596-.173-1.372.424-1.729.593-.354 1.366-.171 1.724.424 1.478 2.44 4.628 3.905 8.111 3.752 2.998-.141 5.399-1.503 6.441-3.642.302-.631 1.055-.889 1.682-.587.623.308.885 1.062.582 1.683-1.445 2.991-4.655 4.879-8.586 5.062l-.624.016zM105.255 102.233l-.624-.017c-3.928-.183-7.139-2.07-8.58-5.062-.307-.621-.045-1.375.586-1.683.627-.301 1.373-.04 1.678.587 1.035 2.139 3.444 3.501 6.436 3.642 3.463.153 6.637-1.312 8.113-3.752.357-.595 1.137-.778 1.729-.424.594.357.781 1.134.424 1.729-1.855 3.069-5.64 4.98-9.762 4.98zM175.488 122.028c-.584 0-1.104-.406-1.229-.996-.149-.684.284-1.354.961-1.498 3.171-.674 5.626-3.439 5.978-6.72.068-.693.729-1.185 1.383-1.121.69.075 1.191.695 1.118 1.386-.462 4.355-3.729 8.02-7.947 8.924l-.264.025zM126.074 122.028l-.266-.025c-4.216-.904-7.489-4.568-7.953-8.924-.07-.69.432-1.311 1.121-1.386.684-.075 1.31.43 1.383 1.121.352 3.28 2.807 6.046 5.974 6.72.683.145 1.11.814.972 1.498-.127.59-.651.996-1.231.996z"/>
	</g>
</svg>